PathFileType	4	(X/Y/Z)	/Users/itak/Documents/Research/Walk-IL/dataset/trc/00287_00010.trc
DataRate	CameraRate	NumFrames	NumMarkers	Units	OrigDataRate	OrigDataStartFrame	OrigNumFrames
100.000000	100.000000	4	54	mm	100.000000	341	683
Frame#	Time	RPSI			LPSI			L3			STRN			T10			C7			CLAV			RBAK			LBAK			LSHO			LUPA			LAEL			LAOL			LWTS			LWPS			LFRA			LHPS			LHTS			RSHO			RUPA			RAEL			RAOL			RWTS			RWPS			RFRA			RHTS			RHPS			RBHD			LFHD			RFHD			LBHD			LHIP			RHIP			RASI			LASI			LKNE			LTHI			LANK			LTIP			LTOE			LMT1			LMT5			LHEE			RKNE			RTHI			RANK			RTIP			RTOE			RMT1			RMT5			RHEE			RIFD			LIFD			*53			
		X1	Y1	Z1	X2	Y2	Z2	X3	Y3	Z3	X4	Y4	Z4	X5	Y5	Z5	X6	Y6	Z6	X7	Y7	Z7	X8	Y8	Z8	X9	Y9	Z9	X10	Y10	Z10	X11	Y11	Z11	X12	Y12	Z12	X13	Y13	Z13	X14	Y14	Z14	X15	Y15	Z15	X16	Y16	Z16	X17	Y17	Z17	X18	Y18	Z18	X19	Y19	Z19	X20	Y20	Z20	X21	Y21	Z21	X22	Y22	Z22	X23	Y23	Z23	X24	Y24	Z24	X25	Y25	Z25	X26	Y26	Z26	X27	Y27	Z27	X28	Y28	Z28	X29	Y29	Z29	X30	Y30	Z30	X31	Y31	Z31	X32	Y32	Z32	X33	Y33	Z33	X34	Y34	Z34	X35	Y35	Z35	X36	Y36	Z36	X37	Y37	Z37	X38	Y38	Z38	X39	Y39	Z39	X40	Y40	Z40	X41	Y41	Z41	X42	Y42	Z42	X43	Y43	Z43	X44	Y44	Z44	X45	Y45	Z45	X46	Y46	Z46	X47	Y47	Z47	X48	Y48	Z48	X49	Y49	Z49	X50	Y50	Z50	X51	Y51	Z51	X52	Y52	Z52	X53	Y53	Z53	X54	Y54	Z54	

342	3.41	-476.7322692871094	975.9684448242188	-404.1858520507812	-542.2487182617188	997.383056640625	-562.9408569335938	-501.5266418457031	1061.84326171875	-496.9209289550781	-249.9592132568359	1228.631713867188	-586.0816650390625	-508.342041015625	1181.864990234375	-501.82421875	-452.0959167480469	1422.254272460938	-543.28076171875	-307.4344177246094	1330.871948242188	-573.6067504882812	-489.3202209472656	1291.224609375	-450.4290771484375	-498.2901916503906	1383.69873046875	-635.4070434570312	-425.848388671875	1385.33544921875	-707.146728515625	-480.5628356933594	1281.2822265625	-781.0899047851562	-490.488037109375	1092.113647460938	-843.6151733398438	-528.6103515625	1058.557861328125	-772.5167236328125	-380.7001342773438	893.5442504882812	-898.3978271484375	-437.6681518554688	889.0491943359375	-942.6755981445312	-476.3907470703125	999.236572265625	-886.6287841796875	-420.8204956054688	808.4173583984375	-973.26171875	-356.1459045410156	814.5634765625	-960.6980590820312	-349.4903259277344	1404.506225585938	-407.8539123535156	-346.5508728027344	1355.636352539062	-336.2569885253906	-397.7038879394531	1106.881225585938	-249.6087493896484	-436.1761474609375	1090.882446289062	-335.2713623046875	-286.9541320800781	888.7396240234375	-299.864013671875	-322.9963684082031	881.2389526367188	-222.4551086425781	-370.4366455078125	1040.257934570312	-234.2958221435547	-245.0390319824219	776.4356689453125	-282.5211181640625	-289.3936462402344	771.9428100585938	-227.7543640136719	-408.5600891113281	1581.954467773438	-503.1709899902344	-231.1344909667969	1591.20947265625	-619.2098999023438	-233.9529113769531	1589.227416992188	-526.4165649414062	-404.6102600097656	1575.165405273438	-649.1591796875	-522.5424194335938	960.3068237304688	-683.0145874023438	-344.1295166015625	918.7667846679688	-354.6809692382812	-268.7901306152344	935.6160278320312	-468.1974792480469	-376.463623046875	956.6223754882812	-696.7054443359375	-506.2861938476562	491.1450805664062	-696.5962524414062	-501.802001953125	635.2282104492188	-708.8133544921875	-641.361572265625	57.78623199462891	-645.2887573242188	-581.30908203125	271.0070495605469	-678.737060546875	-427.5065002441406	35.87171173095703	-663.6182861328125	-481.6795043945312	29.92863273620605	-600.9276123046875	-532.5579833984375	43.9206428527832	-700.219482421875	-664.6699829101562	56.43845367431641	-574.3426513671875	-177.241943359375	499.2911071777344	-515.2822265625	-245.9105987548828	738.4395751953125	-420.0231323242188	-306.8591003417969	63.44147109985352	-558.506591796875	-181.2826080322266	374.0515441894531	-547.7262573242188	-166.3518981933594	61.24401473999023	-700.85009765625	-235.2201690673828	61.12417221069336	-705.7964477539062	-208.7898101806641	42.58903884887695	-592.2903442382812	-376.0760803222656	73.04148101806641	-574.6482543945312	-270.2627868652344	706.2015991210938	-301.9774169921875	-354.0573425292969	725.7183837890625	-971.57861328125	nan	nan	nan	
343	3.42	-470.19921875	974.8989868164062	-407.8120422363281	-535.2311401367188	996.2503662109375	-566.7415771484375	-494.7947387695312	1060.520385742188	-501.1661071777344	-242.3253784179688	1226.70947265625	-588.1270751953125	-501.3838500976562	1180.385131835938	-506.6759643554688	-444.430908203125	1420.85888671875	-547.1268310546875	-299.5920104980469	1329.062622070312	-575.9937133789062	-482.9342956542969	1289.6259765625	-455.0134887695312	-489.5546264648438	1382.560913085938	-639.9246826171875	-416.1821594238281	1384.369750976562	-710.6614379882812	-469.5496520996094	1280.689819335938	-786.02490234375	-477.5412902832031	1092.16748046875	-850.15380859375	-516.8326416015625	1057.68798828125	-780.1456909179688	-364.4468994140625	895.73583984375	-905.000732421875	-420.4185180664062	890.9122314453125	-950.380859375	-461.7638854980469	999.9739990234375	-893.8717041015625	-401.837890625	810.8988647460938	-981.5414428710938	-337.49169921875	817.9113159179688	-967.75634765625	-343.4797668457031	1402.52734375	-410.5693969726562	-341.6016540527344	1353.522216796875	-339.0736999511719	-394.7733764648438	1104.690795898438	-253.8785247802734	-431.9169616699219	1088.955200195312	-340.1737060546875	-282.9708557128906	886.9917602539062	-303.6648254394531	-319.6961059570312	879.1784057617188	-226.6504364013672	-367.4829711914062	1038.081298828125	-238.4507141113281	-240.8585357666016	774.7525024414062	-286.2320861816406	-285.7342834472656	770.0645141601562	-231.8932800292969	-401.2042846679688	1580.482177734375	-506.483642578125	-222.3909301757812	1589.661010742188	-620.4459228515625	-226.3140106201172	1587.674194335938	-527.6482543945312	-395.4898071289062	1573.692993164062	-652.4171752929688	-515.2659912109375	958.7673950195312	-686.6282348632812	-337.8480834960938	917.6131591796875	-357.8259887695312	-261.990478515625	934.1138916015625	-471.0450134277344	-369.1305847167969	954.6773681640625	-699.8275756835938	-502.8881530761719	489.8643493652344	-697.152099609375	-497.0919494628906	633.7523193359375	-710.3126220703125	-641.1170043945312	57.98774719238281	-644.37841796875	-579.5944213867188	270.4047241210938	-678.4913940429688	-427.3940734863281	35.80418395996094	-663.714599609375	-481.3753356933594	29.96377944946289	-600.739990234375	-532.3703002929688	44.12467956542969	-699.7962036132812	-664.2517700195312	56.35634231567383	-573.393310546875	-171.1211700439453	498.1934204101562	-517.2648315429688	-239.5096893310547	737.306640625	-421.3893127441406	-273.745361328125	56.79927444458008	-570.5784912109375	-168.3275909423828	373.731689453125	-551.01171875	-130.4782409667969	64.41033935546875	-710.0551147460938	-199.2238159179688	60.62056350708008	-716.3701782226562	-174.1368408203125	41.80810165405273	-602.6773071289062	-343.1296081542969	62.7229118347168	-587.9998168945312	-265.6986389160156	704.5145263671875	-306.0935668945312	-333.8890686035156	729.178466796875	-979.6011352539062	nan	nan	nan	
344	3.43	-463.4562377929688	973.5513305664062	-411.3160705566406	-528.1483764648438	994.86181640625	-570.4000854492188	-487.9717712402344	1058.995483398438	-505.2348327636719	-234.6585388183594	1224.567504882812	-590.163330078125	-494.1984558105469	1178.683959960938	-511.3486022949219	-436.6621704101562	1419.269897460938	-550.7930297851562	-291.6880798339844	1327.050537109375	-578.3238525390625	-476.3818969726562	1287.827514648438	-459.4214172363281	-480.7682189941406	1381.241577148438	-644.225341796875	-406.5350646972656	1383.193603515625	-713.9990234375	-458.5610961914062	1279.873779296875	-790.7158813476562	-464.6142883300781	1091.9853515625	-856.34326171875	-504.9942932128906	1056.607543945312	-787.4196166992188	-348.3037109375	897.6796264648438	-911.1283569335938	-403.2999877929688	892.5274658203125	-957.55615234375	-447.2059020996094	1000.467224121094	-900.6868286132812	-383.0050354003906	813.1416015625	-989.1998901367188	-319.0102844238281	821.0137939453125	-974.2332153320312	-337.2645568847656	1400.33251953125	-413.1790771484375	-336.3861694335938	1351.152221679688	-341.8169860839844	-391.4222412109375	1102.206787109375	-258.1707153320312	-427.3512573242188	1086.778686523438	-345.0581359863281	-278.9189147949219	884.7785034179688	-307.4786682128906	-316.3154907226562	876.7411499023438	-230.8448944091797	-364.2175598144531	1035.583618164062	-242.6541442871094	-236.7720642089844	772.5569458007812	-289.9219360351562	-282.1913146972656	767.734619140625	-236.0036926269531	-393.7898254394531	1578.782836914062	-509.6322326660156	-213.6721343994141	1587.987915039062	-621.6065063476562	-218.6408386230469	1585.967895507812	-528.815185546875	-386.3871154785156	1572.037353515625	-655.4931030273438	-507.9443359375	957.0184936523438	-690.1190795898438	-331.345947265625	916.1559448242188	-360.9464111328125	-255.0093078613281	932.3753051757812	-473.8898620605469	-361.747802734375	952.5784912109375	-702.8872680664062	-499.350830078125	488.4941101074219	-697.6640014648438	-492.2021484375	632.1412353515625	-711.7882080078125	-640.830322265625	58.14376068115234	-643.4259033203125	-577.7919921875	269.7302856445312	-678.2120361328125	-427.3031921386719	35.74692153930664	-663.8132934570312	-481.0781860351562	30.01643943786621	-600.5640869140625	-532.1699829101562	44.31838989257812	-699.35302734375	-663.8414306640625	56.23260498046875	-572.4005737304688	-165.4508819580078	496.5118103027344	-518.9874267578125	-233.1539764404297	735.6522827148438	-422.7037963867188	-240.221923828125	51.38601303100586	-581.6206665039062	-155.8121795654297	373.2930297851562	-553.7794799804688	-95.13029479980469	68.42960357666016	-718.377685546875	-163.5356750488281	61.11771774291992	-725.9363403320312	-139.5232391357422	42.06348419189453	-612.1199951171875	-309.5726623535156	53.68128967285156	-600.324462890625	-261.3727416992188	702.3268432617188	-310.1796264648438	-313.8995971679688	732.3812866210938	-986.9330444335938	nan	nan	nan	
345	3.44	-456.4867858886719	971.9314575195312	-414.6968688964844	-520.9763793945312	993.2260131835938	-573.9204711914062	-481.0540466308594	1057.270263671875	-509.1246948242188	-226.9461669921875	1222.228149414062	-592.1884155273438	-486.8053588867188	1176.786254882812	-515.8400268554688	-428.785400390625	1417.495971679688	-554.2804565429688	-283.7110900878906	1324.859619140625	-580.595703125	-469.6664733886719	1285.837280273438	-463.6568908691406	-471.9421691894531	1379.744995117188	-648.3103637695312	-396.9111022949219	1381.812255859375	-717.1654052734375	-447.6075439453125	1278.833618164062	-795.161865234375	-451.7151184082031	1091.556030273438	-862.18359375	-493.1000671386719	1055.312744140625	-794.3204956054688	-332.2908935546875	899.3675537109375	-916.7876586914062	-386.3486022949219	893.8776245117188	-964.2042846679688	-432.7319946289062	1000.705749511719	-907.0717163085938	-364.3591613769531	815.1206665039062	-996.241455078125	-300.7384338378906	823.8554077148438	-980.1386108398438	-330.8473510742188	1397.935668945312	-415.6787719726562	-330.9056091308594	1348.536865234375	-344.4759216308594	-387.6466369628906	1099.436401367188	-262.4702453613281	-422.4577026367188	1084.361450195312	-349.9112243652344	-274.7887573242188	882.1045532226562	-311.28662109375	-312.8666076660156	873.9249267578125	-235.0322875976562	-360.6365356445312	1032.769897460938	-246.8894500732422	-232.7827758789062	769.8509521484375	-293.5723876953125	-278.7733764648438	764.9428100585938	-240.0829772949219	-386.3088684082031	1576.869750976562	-512.6209716796875	-204.9693145751953	1586.190185546875	-622.6954956054688	-210.9239807128906	1584.11181640625	-529.9235229492188	-377.2963256835938	1570.20556640625	-658.3939819335938	-500.5441589355469	955.0743408203125	-693.4942016601562	-324.6042175292969	914.3952026367188	-364.0449829101562	-247.8322296142578	930.3999633789062	-476.7380981445312	-354.3028259277344	950.3494262695312	-705.9002075195312	-495.7292175292969	487.0675964355469	-698.1449584960938	-487.1801452636719	630.4328002929688	-713.2465209960938	-640.5007934570312	58.25348663330078	-642.4591064453125	-575.9427490234375	269.0237426757812	-677.914794921875	-427.2339782714844	35.69730377197266	-663.9127197265625	-480.7955322265625	30.07918548583984	-600.4102172851562	-531.9688110351562	44.50343704223633	-698.9177856445312	-663.449462890625	56.09701538085938	-571.3925170898438	-160.0559234619141	494.3026428222656	-520.4955444335938	-226.8293914794922	733.4906005859375	-424.0037841796875	-206.6250152587891	47.24795913696289	-591.6669311523438	-143.6724243164062	372.7622680664062	-556.1467895507812	-60.53274154663086	73.36936950683594	-725.8505249023438	-128.3991241455078	62.69844818115234	-734.5360717773438	-105.2316513061523	43.43158721923828	-620.6472778320312	-275.751708984375	46.03605270385742	-611.6089477539062	-257.2687683105469	699.6339721679688	-314.2264709472656	-294.1137390136719	735.306884765625	-993.5761108398438	nan	nan	nan	
